<svg width="140" height="151" viewBox="0 0 140 151" fill="none" xmlns="http://www.w3.org/2000/svg">
<path d="M69.3462 0C33.8808 0 36.0941 16.6809 36.0941 16.6809L36.1377 33.9631H69.9792V39.1477H22.6876C22.6876 39.1477 0 36.3542 0 75.1705C0 113.977 19.8063 112.604 19.8063 112.604H31.6282V94.5928C31.6282 94.5928 30.9908 73.1108 51.1202 73.1108H84.6823C84.6823 73.1108 103.541 73.4422 103.541 53.3428V20.1089C103.541 20.1089 106.405 0 69.3462 0ZM50.6836 11.6193C54.0494 11.6193 56.7735 14.5739 56.7735 18.2244C56.7735 21.875 54.0494 24.8295 50.6836 24.8295C49.8836 24.8308 49.0911 24.6608 48.3518 24.3293C47.6124 23.9978 46.9406 23.5113 46.3749 22.8977C45.8091 22.2841 45.3606 21.5555 45.055 20.7536C44.7493 19.9516 44.5926 19.0922 44.5937 18.2244C44.5937 14.5739 47.3178 11.6193 50.6836 11.6193Z" fill="url(#paint0_linear_83_44)"/>
<path d="M70.3502 150.724C105.816 150.724 103.602 134.044 103.602 134.044L103.559 116.761H69.7172V111.577H117.004C117.004 111.577 139.696 114.37 139.696 75.5587C139.696 36.7471 119.89 38.125 119.89 38.125H108.068V56.1316C108.068 56.1316 108.706 77.6136 88.5762 77.6136H55.0141C55.0141 77.6136 36.1551 77.2822 36.1551 97.3816V130.615C36.1551 130.615 33.2913 150.724 70.3502 150.724ZM89.0127 139.105C88.2127 139.106 87.4203 138.936 86.6809 138.605C85.9415 138.273 85.2697 137.787 84.704 137.173C84.1382 136.56 83.6897 135.831 83.3841 135.029C83.0784 134.227 82.9217 133.368 82.9228 132.5C82.9228 128.854 85.6469 125.9 89.0127 125.9C92.3785 125.9 95.1026 128.849 95.1026 132.5C95.1026 136.155 92.3785 139.105 89.0127 139.105Z" fill="url(#paint1_linear_83_44)"/>
<defs>
<linearGradient id="paint0_linear_83_44" x1="13.424" y1="13.1723" x2="88.1173" y2="82.27" gradientUnits="userSpaceOnUse">
<stop stop-color="#387EB8"/>
<stop offset="1" stop-color="#366994"/>
</linearGradient>
<linearGradient id="paint1_linear_83_44" x1="55.9178" y1="60.9943" x2="135.84" y2="131.59" gradientUnits="userSpaceOnUse">
<stop stop-color="#FFE052"/>
<stop offset="1" stop-color="#FFC331"/>
</linearGradient>
</defs>
</svg>
