<svg width="157" height="134" viewBox="0 0 157 134" fill="none" xmlns="http://www.w3.org/2000/svg">
<path d="M129.086 43.4592C127.457 42.9236 125.769 42.4168 124.032 41.9375C124.317 40.8239 124.579 39.7247 124.812 38.6441C128.638 20.9013 126.137 6.60757 117.595 1.90146C109.405 -2.61107 96.01 2.09397 82.482 13.3421C81.1811 14.4237 79.8766 15.5688 78.5727 16.769C77.7038 15.9749 76.8364 15.2076 75.9712 14.4736C61.7935 2.4464 47.5825 -2.62202 39.0492 2.0977C30.8667 6.62332 28.4435 20.0608 31.8873 36.8758C32.2198 38.4999 32.6085 40.1585 33.0481 41.8449C31.0369 42.3904 29.0952 42.9719 27.2374 43.5905C10.6155 49.1273 0 57.8047 0 66.8055C0 76.1015 11.3957 85.4256 28.7087 91.0793C30.075 91.5255 31.4927 91.9473 32.9537 92.3478C32.4794 94.1717 32.067 95.959 31.7207 97.7022C28.4371 114.225 31.0014 127.345 39.1621 131.842C47.5914 136.487 61.7381 131.713 75.5134 120.209C76.6022 119.299 77.6949 118.335 78.7895 117.324C80.2083 118.629 81.6249 119.865 83.0339 121.023C96.3769 131.994 109.555 136.423 117.708 131.914C126.129 127.256 128.866 113.162 125.313 96.0145C125.042 94.7049 124.726 93.3669 124.371 92.0053C125.365 91.7246 126.34 91.435 127.291 91.1338C145.29 85.4363 157 76.2257 157 66.8055C157 57.7721 146.042 49.0362 129.086 43.4592ZM125.182 85.0513C124.323 85.3228 123.442 85.5853 122.545 85.8397C120.558 79.8299 117.876 73.4393 114.595 66.8367C117.726 60.3914 120.304 54.0825 122.235 48.1116C123.841 48.5556 125.4 49.0239 126.902 49.5181C141.431 54.2966 150.293 61.3616 150.293 66.8055C150.293 72.6041 140.722 80.1316 125.182 85.0513ZM118.734 97.259C120.305 104.841 120.529 111.697 119.488 117.056C118.553 121.872 116.673 125.082 114.348 126.368C109.4 129.104 98.8191 125.548 87.408 116.166C86.0999 115.09 84.7822 113.942 83.4604 112.727C87.8842 108.104 92.3055 102.73 96.6206 96.7621C104.21 96.1186 111.381 95.0667 117.884 93.6305C118.204 94.8648 118.488 96.0754 118.734 97.259ZM53.5248 125.895C48.6908 127.526 44.8407 127.573 42.5134 126.291C37.5611 123.562 35.5023 113.028 38.3106 98.8973C38.6323 97.279 39.0151 95.6167 39.4564 93.9175C45.8878 95.2762 53.0059 96.254 60.6139 96.8433C64.958 102.683 69.507 108.051 74.0913 112.752C73.0897 113.675 72.092 114.555 71.1 115.384C65.0086 120.471 58.9044 124.08 53.5248 125.895ZM30.8779 85.0158C23.2224 82.5159 16.9002 79.2668 12.5667 75.7213C8.6727 72.5352 6.70671 69.3721 6.70671 66.8055C6.70671 61.3435 15.2299 54.3767 29.4451 49.6415C31.1699 49.0669 32.9755 48.5254 34.8492 48.0168C36.8138 54.1225 39.391 60.5062 42.5011 66.9614C39.3507 73.5124 36.737 79.9978 34.7531 86.1751C33.4173 85.8082 32.1231 85.4222 30.8779 85.0158ZM38.4693 35.6452C35.5188 21.2385 37.4784 10.3706 42.4094 7.64352C47.6618 4.73831 59.2764 8.88052 71.5177 19.2654C72.3002 19.9292 73.0858 20.6239 73.8736 21.3426C69.312 26.0223 64.8046 31.35 60.499 37.1556C53.1152 37.8095 46.0471 38.8599 39.5486 40.2664C39.14 38.6962 38.7781 37.1535 38.4693 35.6452ZM106.192 51.6221C104.639 49.0584 103.044 46.5553 101.418 44.1205C106.427 44.7255 111.226 45.5287 115.734 46.5115C114.38 50.6548 112.694 54.9868 110.709 59.4278C109.285 56.8446 107.778 54.24 106.192 51.6221ZM78.5749 25.9222C81.6685 29.1243 84.7666 32.6994 87.8138 36.5784C84.7431 36.4398 81.6344 36.3677 78.5 36.3677C75.3952 36.3677 72.3094 36.4382 69.2578 36.5743C72.3081 32.7314 75.4329 29.1612 78.5749 25.9222ZM50.7808 51.6664C49.229 54.2373 47.7507 56.8277 46.3489 59.423C44.3958 54.9975 42.7249 50.6457 41.36 46.4437C45.8395 45.4859 50.6163 44.7028 55.5937 44.1093C53.9449 46.5665 52.3369 49.0885 50.7808 51.6664ZM55.737 89.9587C50.5945 89.4106 45.7459 88.6678 41.2675 87.7365C42.6542 83.4595 44.362 79.0147 46.3565 74.4939C47.7619 77.0873 49.2461 79.6788 50.8074 82.2553C52.3978 84.8802 54.0458 87.4513 55.737 89.9587ZM78.7605 108.14C75.5816 104.864 72.4109 101.239 69.3142 97.3399C72.3203 97.4526 75.3852 97.5102 78.5 97.5102C81.7001 97.5102 84.8635 97.4413 87.9773 97.3089C84.92 101.278 81.8331 104.908 78.7605 108.14ZM110.773 74.2635C112.871 78.8332 114.64 83.2547 116.045 87.4588C111.493 88.451 106.578 89.2501 101.399 89.8439C103.029 87.3763 104.638 84.8302 106.219 82.2112C107.818 79.5616 109.337 76.9079 110.773 74.2635ZM100.409 79.0099C97.955 83.0755 95.4354 86.9566 92.8776 90.6201C88.2187 90.9383 83.4056 91.1023 78.5 91.1023C73.6142 91.1023 68.8618 90.9573 64.2854 90.6735C61.6244 86.9619 59.05 83.0694 56.6115 79.0449C54.1793 75.0314 51.9414 70.984 49.9131 66.9593C51.9409 62.9252 54.1735 58.8732 56.5916 54.8669L56.5911 54.8677C59.0156 50.8507 61.5674 46.9771 64.2038 43.2888C68.873 42.9516 73.6609 42.7756 78.4997 42.7756C83.3603 42.7756 88.1547 42.9529 92.8225 43.2931C95.4187 46.9544 97.9531 50.8155 100.387 54.833C102.849 58.8956 105.11 62.9206 107.155 66.8682C105.116 70.8836 102.86 74.9492 100.409 79.0099ZM114.245 7.45288C119.502 10.3495 121.547 22.0318 118.244 37.3508C118.033 38.3283 117.796 39.3239 117.538 40.3329C111.024 38.897 103.951 37.8284 96.546 37.1647C92.232 31.2953 87.7615 25.9593 83.2743 21.3397C84.4807 20.2309 85.6854 19.1736 86.8851 18.1758C98.4759 8.5385 109.309 4.73351 114.245 7.45288ZM78.5 53.411C86.2427 53.411 92.5196 59.4077 92.5196 66.8055C92.5196 74.2029 86.2427 80.1999 78.5 80.1999C70.7573 80.1999 64.4804 74.2029 64.4804 66.8055C64.4804 59.4077 70.7573 53.411 78.5 53.411Z" fill="#00D8FF"/>
</svg>
