<svg width="149" height="150" viewBox="0 0 149 150" fill="none" xmlns="http://www.w3.org/2000/svg">
<path d="M41.9062 64.2187C46.2521 46.7187 57.1167 37.9688 74.5 37.9688C100.575 37.9688 103.834 57.6562 116.872 60.9375C125.564 63.125 133.169 59.8437 139.688 51.0937C135.342 68.5937 124.477 77.3437 107.094 77.3437C81.0188 77.3437 77.7594 57.6562 64.7219 54.375C56.0302 52.1875 48.425 55.4687 41.9062 64.2187ZM9.3125 103.594C13.6583 86.0937 24.5229 77.3437 41.9062 77.3437C67.9812 77.3437 71.2406 97.0312 84.2781 100.312C92.9698 102.5 100.575 99.2187 107.094 90.4687C102.748 107.969 91.8833 116.719 74.5 116.719C48.425 116.719 45.1656 97.0312 32.1281 93.75C23.4365 91.5625 15.8312 94.8437 9.3125 103.594Z" fill="#44A8B3"/>
</svg>
